<?xml version="1.0" encoding="UTF-8" standalone="no"?><!DOCTYPE svg PUBLIC "-//W3C//DTD SVG 1.1//EN" "http://www.w3.org/Graphics/SVG/1.1/DTD/svg11.dtd"><svg width="100%" height="100%" viewBox="0 0 381 63" version="1.1" xmlns="http://www.w3.org/2000/svg" xmlns:xlink="http://www.w3.org/1999/xlink" xml:space="preserve" xmlns:serif="http://www.serif.com/" style="fill-rule:evenodd;clip-rule:evenodd;stroke-linejoin:round;stroke-miterlimit:2;"><g id="Layer-1" serif:id="Layer 1"><path d="M10.712,40.565l2.652,-0c1.976,-0 3.38,-0.261 4.212,-0.78c1.005,-0.589 1.508,-1.577 1.508,-2.964c0,-1.49 -0.607,-2.53 -1.82,-3.12c-0.902,-0.416 -2.427,-0.624 -4.576,-0.624l-1.976,-0l0,7.488Zm-10.712,21.632l0,-37.648l13.156,-0c4.541,-0 8.06,0.624 10.556,1.872c4.056,1.976 6.084,5.252 6.084,9.828c0,4.819 -2.306,8.199 -6.916,10.139l9.984,15.809l-12.116,-0l-8.372,-14.3l-1.664,-0l-0,14.3l-10.712,-0Z" style="fill:#16998d;fill-rule:nonzero;"/><path d="M34.631,62.197l0,-37.648l24.544,-0l0,9.048l-13.832,-0l0,4.784l11.7,-0l0,8.528l-11.7,-0l0,6.24l14.456,-0l0,9.048l-25.168,-0Z" style="fill:#16998d;fill-rule:nonzero;"/><path d="M82.159,35.989l-0.104,-0c-0.694,2.323 -1.474,4.663 -2.34,7.021l-1.3,3.587l7.28,-0l-1.248,-3.587c-0.659,-1.942 -1.422,-4.282 -2.288,-7.021m-20.436,26.208l15.236,-37.648l10.556,-0l15.236,37.648l-11.648,-0l-2.652,-7.695l-12.896,-0l-2.756,7.695l-11.076,-0Z" style="fill:#16998d;fill-rule:nonzero;"/><path d="M116.531,53.149l0.416,-0c5.616,-0 9.342,-1.093 11.18,-3.276c1.282,-1.56 1.924,-3.709 1.924,-6.448c-0,-3.502 -1.075,-6.066 -3.224,-7.696c-1.907,-1.421 -5.218,-2.132 -9.932,-2.132l-0.364,-0l-0,19.552Zm-10.712,9.048l-0,-37.648l10.816,-0c7.973,-0 13.866,1.439 17.68,4.316c4.299,3.224 6.448,8.078 6.448,14.56c-0,5.789 -1.786,10.314 -5.356,13.572c-3.848,3.467 -10.036,5.2 -18.564,5.2l-11.024,-0Z" style="fill:#16998d;fill-rule:nonzero;"/><path d="M152.775,62.197l-0,-16.848l-14.612,-20.8l12.48,-0l3.432,5.304c1.49,2.254 2.877,4.438 4.16,6.552l0.104,-0c1.802,-2.912 3.154,-5.061 4.056,-6.448l3.484,-5.408l12.167,-0l-14.559,20.591l-0,17.057l-10.712,-0Z" style="fill:#16998d;fill-rule:nonzero;"/><path d="M194.983,41.043l-0.095,-0.053c-1.003,1.045 -2.352,2.401 -4.047,4.064l-2.596,2.538l0.031,0.102l3.949,-0.001l0.816,-2.07c0.755,-1.869 1.403,-3.396 1.942,-4.58m-23.462,14.147l-0.032,-0.101l30.842,-30.365l10.048,-0.01l-9.301,22.975l4.901,-0.001l-3.077,7.497l-4.869,0.001l-2.91,7.198l-10.715,0l2.843,-7.196l-17.73,0.002Z" style="fill:#e05b2a;fill-rule:nonzero;"/><path d="M230.349,36.177l-0.104,-0c-0.694,2.323 -1.474,4.663 -2.34,7.02l-1.3,3.588l7.28,-0l-1.248,-3.588c-0.659,-1.941 -1.422,-4.281 -2.288,-7.02m-20.437,26.208l15.237,-37.648l10.556,-0l15.236,37.648l-11.648,-0l-2.652,-7.696l-12.896,-0l-2.756,7.696l-11.077,-0Z" style="fill:#145a7d;fill-rule:nonzero;"/><path d="M254.009,62.384l-0,-37.647l24.544,0l-0,9.047l-13.832,0l-0,4.785l11.7,0l-0,8.527l-11.7,0l-0,6.24l14.456,0l-0,9.048l-25.168,0Z" style="fill:#145a7d;fill-rule:nonzero;"/><path d="M294.672,40.752l2.652,0c1.976,0 3.38,-0.26 4.212,-0.78c1.005,-0.589 1.508,-1.577 1.508,-2.964c-0,-1.49 -0.606,-2.53 -1.82,-3.12c-0.902,-0.416 -2.427,-0.624 -4.575,-0.624l-1.977,0l-0,7.488Zm-10.712,21.632l-0,-37.648l13.156,0c4.541,0 8.06,0.624 10.556,1.872c4.057,1.977 6.084,5.252 6.084,9.828c-0,4.819 -2.306,8.199 -6.916,10.14l9.984,15.808l-12.116,0l-8.372,-14.3l-1.664,0l-0,14.3l-10.712,0Z" style="fill:#145a7d;fill-rule:nonzero;"/><path d="M346.827,43.56c0,2.739 -0.91,5.054 -2.73,6.942c-0.076,0.079 -0.156,0.146 -0.233,0.22c-0.206,-2.587 -2.441,-7.391 -1.866,-8.1c0.195,-0.241 1.752,-1.674 3.832,-3.544c0.66,1.341 0.997,2.834 0.997,4.482m-16.094,6.942c-1.82,-1.888 -2.73,-4.203 -2.73,-6.942c0,-0.866 0.101,-1.685 0.284,-2.466c2.557,1.336 5.891,3.044 5.617,3.518c-0.336,0.583 -2.789,4.516 -2.509,4.797c0.281,0.28 4.214,-2.173 4.797,-2.509c0.505,-0.291 2.406,3.502 3.771,6.098c-0.804,0.22 -1.651,0.338 -2.548,0.338c-2.635,0 -4.862,-0.944 -6.682,-2.834m6.682,-16.717c1.625,0 3.094,0.362 4.409,1.081c-1.919,2.135 -3.396,3.742 -3.642,3.94c-0.678,0.551 -5.114,-1.477 -7.76,-1.833c0.104,-0.118 0.201,-0.239 0.311,-0.354c1.82,-1.89 4.047,-2.834 6.682,-2.834m43.282,-33.678c-0.393,-0.394 -4.996,0.226 -7.92,3.09c-3.485,3.416 -8.512,8.901 -9.013,9.402c-0.5,0.501 -7.188,-0.742 -7.179,-1.223c0.705,-0.539 3.033,-2.722 3.1,-3.181c0.07,-0.46 -2.497,-3.048 -3.055,-3.048c-0.559,0 -4.211,3.951 -4.874,4.885c-0.528,0.138 -20.074,-6.34 -21.803,-5.974c-1.73,0.364 -3.802,1.942 -3.333,2.411c0.469,0.468 15.558,7.253 18.177,8.91c2.621,1.658 7.647,6.491 7.648,7.078c0,0.208 -1.693,2.242 -3.911,4.807c-3.221,-2.063 -6.925,-3.1 -11.119,-3.1c-5.651,0 -10.418,1.873 -14.3,5.617c-3.883,3.744 -5.824,8.338 -5.824,13.779c0,5.443 1.941,10.036 5.824,13.78c3.882,3.744 8.649,5.616 14.3,5.616c5.65,0 10.417,-1.872 14.3,-5.616c3.882,-3.744 5.824,-8.337 5.824,-13.78c0,-4.375 -1.278,-8.193 -3.789,-11.472c2.467,-2.129 4.394,-3.728 4.598,-3.728c0.587,-0.001 5.419,5.026 7.078,7.647c1.657,2.62 8.44,17.708 8.91,18.177c0.469,0.469 2.047,-1.603 2.411,-3.333c0.366,-1.729 -6.113,-21.276 -5.975,-21.803c0.934,-0.662 4.886,-4.315 4.885,-4.874c0,-0.558 -2.588,-3.124 -3.047,-3.056c-0.46,0.069 -2.643,2.397 -3.181,3.101c-0.481,0.009 -1.724,-6.678 -1.223,-7.179c0.5,-0.501 5.984,-5.527 9.401,-9.014c2.865,-2.922 3.485,-7.525 3.09,-7.919" style="fill:#145a7d;fill-rule:nonzero;"/></g></svg>